<svg width="64" height="64" viewBox="0 0 64 64" fill="none" xmlns="http://www.w3.org/2000/svg">
<path fill-rule="evenodd" clip-rule="evenodd" d="M31.7036 33.6499H31.789C39.597 33.6499 45.9463 27.3006 45.9463 19.4926C45.9463 11.6846 39.597 5.33257 31.789 5.33257C23.9783 5.33257 17.6263 11.6846 17.6263 19.4846C17.5996 27.2712 23.9116 33.6259 31.7036 33.6499ZM21.4343 19.4926C21.4343 13.7832 26.0796 9.14056 31.789 9.14056C37.4956 9.14056 42.1383 13.7832 42.1383 19.4926C42.1383 25.1992 37.4956 29.8446 31.789 29.8446H31.7116C26.0263 29.8232 21.4156 25.1832 21.4343 19.4926Z" fill="#666"/>
<path fill-rule="evenodd" clip-rule="evenodd" d="M10.6663 48.4615C10.6663 58.3201 26.5649 58.3201 31.7889 58.3201C40.8529 58.3201 52.9063 57.3041 52.9063 48.5148C52.9063 38.6561 37.0129 38.6561 31.7889 38.6561C22.7223 38.6561 10.6663 39.6721 10.6663 48.4615ZM14.6663 48.4615C14.6663 44.6081 20.4263 42.6561 31.7889 42.6561C43.1489 42.6561 48.9063 44.6268 48.9063 48.5148C48.9063 52.3681 43.1489 54.3201 31.7889 54.3201C20.4263 54.3201 14.6663 52.3495 14.6663 48.4615Z" fill="#666"/>
</svg>
